<svg xmlns="http://www.w3.org/2000/svg" xmlns:xlink="http://www.w3.org/1999/xlink" version="1.1" x="0px" y="0px" viewBox="0 0 100 100" style="enable-background:new 0 0 100 100;" xml:space="preserve"><path fill="white" d="M92,8.9H78.6c-2,0-3.7,1.7-3.7,3.7v44.5c0,2,1.7,3.7,3.7,3.7H92c2,0,3.7-1.7,3.7-3.7V12.6C95.7,10.6,94.1,8.9,92,8.9z   M4.3,54.6c0,4.6,3.7,8.3,8.3,8.3h22.7c1.8,0,3.1,1.6,2.8,3.4c0,0-6.9,17.1-6.9,19.3s0.8,3.7,2.6,4.1c1.8,0.4,5.5,1.2,5.5,1.2  c1.7,0.2,2.9-0.1,3.7-0.8l25.3-25.5c1.5-1.5,2.5-3.6,2.5-5.9V12.2c0-1.8-1.5-3.2-3.2-3.2H25.1c-3.4,0-5.8,2.4-7.6,5.1L5.9,29.2  c-0.7,0.9-1.6,2.9-1.6,4.7v20.4l0,0L4.3,54.6z"/></svg>