<?xml version="1.0" encoding="UTF-8"?>
<svg width="248px" height="150px" viewBox="0 0 248 150" version="1.1" xmlns="http://www.w3.org/2000/svg" xmlns:xlink="http://www.w3.org/1999/xlink">
    <!-- Generator: Sketch 48.2 (47327) - http://www.bohemiancoding.com/sketch -->
    <title>welcome-screen</title>
    <desc>Created with Sketch.</desc>
    <defs>
        <path d="M85.8215215,42.7092985 L92.0001415,67.0001343 L74.037167,50.746229 C72.0318182,51.3225993 69.9132138,51.6313554 67.7224956,51.6313554 L29.8156777,51.6313554 C17.2149268,51.6313554 7,41.4164285 7,28.8156777 C7,16.2149268 17.2149268,6 29.8156777,6 L67.7224956,6 C80.3232464,6 90.5381733,16.2149268 90.5381733,28.8156777 C90.5381733,34.0440625 88.779531,38.8616944 85.8215215,42.7092985 Z" id="path-1"></path>
    </defs>
    <g id="Page-1" stroke="none" stroke-width="1" fill="none" fill-rule="evenodd">
        <g id="welcome-screen">
            <path d="M113.442553,135.063584 L113.442553,122.578035 L46,122.578035 C43.790861,122.578035 42,120.787174 42,118.578035 L42,26 C42,23.790861 43.790861,22 46,22 L201,22 C203.209139,22 205,23.790861 205,26 L205,118.578035 C205,120.787174 203.209139,122.578035 201,122.578035 L134.944681,122.578035 L134.944681,135.063584 L144.042553,135.063584 C145.147123,135.063584 146.042553,135.959014 146.042553,137.063584 L146.042553,140 C146.042553,141.104569 145.147123,142 144.042553,142 L104.344681,142 C103.240111,142 102.344681,141.104569 102.344681,140 L102.344681,137.063584 C102.344681,135.959014 103.240111,135.063584 104.344681,135.063584 L113.442553,135.063584 Z" id="Combined-Shape" stroke="#8E8E8E" stroke-width="2" fill="#EEEEEE"></path>
            <rect id="Rectangle" stroke="#8E8E8E" x="42.5" y="22.5" width="162" height="100" rx="4"></rect>
            <rect id="Rectangle" stroke="#8E8E8E" x="50.5" y="30.5" width="146" height="77" rx="2"></rect>
            <rect id="Rectangle" stroke="#8E8E8E" x="102.5" y="135.5" width="43" height="6" rx="2"></rect>
            <circle id="Oval" stroke="#8E8E8E" cx="194" cy="115" r="3"></circle>
            <g id="Combined-Shape">
                <use fill="#EEEEEE" fill-rule="evenodd" xlink:href="#path-1"></use>
                <path stroke="#8E8E8E" stroke-width="2" d="M90.214218,64.035515 L84.7326186,42.4849697 L85.0287297,42.099806 C87.9366678,38.3173318 89.5381733,33.6895614 89.5381733,28.8156777 C89.5381733,16.7672116 79.7709617,7 67.7224956,7 L29.8156777,7 C17.7672116,7 8,16.7672116 8,28.8156777 C8,40.8641438 17.7672116,50.6313554 29.8156777,50.6313554 L67.7224956,50.6313554 C69.7883505,50.6313554 71.8148992,50.3444608 73.7609337,49.7851384 L74.2956072,49.6314644 L90.214218,64.035515 Z"></path>
            </g>
            <circle id="Oval" stroke="#8E8E8E" cx="29" cy="30" r="4"></circle>
            <circle id="Oval" stroke="#8E8E8E" cx="49" cy="30" r="4"></circle>
            <circle id="Oval" stroke="#8E8E8E" cx="69" cy="30" r="4"></circle>
        </g>
    </g>
</svg>