<?xml version="1.0" encoding="UTF-8"?>
<svg width="582px" height="150px" viewBox="0 0 582 150" version="1.1" xmlns="http://www.w3.org/2000/svg" xmlns:xlink="http://www.w3.org/1999/xlink">
    <!-- Generator: Sketch 47.1 (45422) - http://www.bohemiancoding.com/sketch -->
    <title>Classic on Dark</title>
    <desc>Created with Sketch.</desc>
    <defs>
        <path d="M54.71,0.63 C23.825,0.63 0.48,22.67 0.48,51.96 C0.48,81.685 23.245,104.16 53.84,104.16 C68.775,104.16 84.87,96.765 95.745,85.6 L80.665,69.65 C73.56,76.9 63.7,81.54 55.145,81.54 C39.05,81.54 26.87,68.635 26.87,51.67 C26.87,34.995 39.05,22.235 55.145,22.235 C64.135,22.235 73.995,27.31 80.665,35.43 L95.6,17.74 C85.45,7.3 69.79,0.63 54.71,0.63 Z" id="path-1"></path>
    </defs>
    <g id="Page-1" stroke="none" stroke-width="1" fill="none" fill-rule="evenodd">
        <g id="Classic-on-Dark">
            <rect id="Rectangle-3" fill="#FFFFFF" x="0" y="0" width="150" height="150"></rect>
            <path d="M213.834,124.972 L213.834,117.302 C209.35,122.848 202.152,125.562 193.066,125.562 C179.496,125.562 171,117.184 171,106.092 C171,94.646 179.614,87.33 194.718,87.212 L213.716,87.212 L213.716,85.324 C213.716,77.418 208.642,72.698 198.73,72.698 C192.712,72.698 186.458,74.822 180.204,79.07 L174.658,69.63 C183.39,64.438 189.762,61.724 201.68,61.724 C217.846,61.724 226.932,69.984 227.05,83.79 L227.168,124.972 L213.834,124.972 Z M195.898,114.824 C205.574,114.824 213.008,109.75 213.716,102.906 L213.716,97.124 L196.724,97.124 C187.874,97.124 183.744,99.484 183.744,105.502 C183.744,111.166 188.346,114.824 195.898,114.824 Z M264.102,61.606 C252.066,61.606 240.974,67.034 240.974,79.778 C240.856,102.434 273.896,95.236 273.896,108.098 C273.896,112.818 269.412,114.824 263.63,114.824 C256.786,114.824 248.054,111.874 242.626,107.036 L237.788,116.712 C244.042,122.376 253.836,125.444 263.04,125.444 C275.666,125.444 287.112,119.662 287.112,106.8 C287.23,84.026 253.836,90.28 253.836,78.716 C253.836,74.232 257.73,72.462 263.04,72.462 C268.586,72.462 275.548,74.586 281.094,78.008 L286.05,67.978 C280.386,63.966 272.008,61.606 264.102,61.606 Z M326.642,61.724 C348.708,61.724 357.676,76.12 356.024,98.776 L308.588,98.776 C310.712,108.452 318.146,114.47 328.058,114.47 C334.902,114.47 341.156,111.874 345.758,107.154 L352.956,114.824 C346.82,121.55 337.852,125.444 326.996,125.444 C307.644,125.444 294.9,112.582 294.9,93.702 C294.9,74.704 307.998,61.842 326.642,61.724 Z M308.352,88.864 L344.224,88.864 C343.752,78.716 337.026,72.58 326.76,72.58 C316.848,72.58 309.886,78.834 308.352,88.864 Z M416.794,52.402 C421.278,52.402 424.7,48.98 424.7,44.26 C424.7,39.422 421.278,36 416.794,36 C412.31,36 408.888,39.422 408.888,44.26 C408.888,48.98 412.31,52.402 416.794,52.402 Z M372.19,64.438 L363.93,64.438 L363.93,74.586 L372.19,74.586 L372.19,124.972 L385.642,124.972 L385.642,74.586 L402.044,74.586 L402.044,64.438 L385.642,64.438 L385.642,57.122 C385.642,50.986 389.3,48.744 394.138,48.744 C397.442,48.744 401.336,49.806 404.994,51.458 L405.466,39.658 C402.162,37.77 398.032,36.826 393.784,36.826 C383.282,36.826 372.19,43.434 372.19,58.42 L372.19,64.438 Z M410.068,62.196 L410.068,124.972 L423.52,124.972 L423.52,62.196 L410.068,62.196 Z M480.278,61.724 C469.658,61.724 461.634,65.5 457.15,74.232 L457.15,62.196 L443.58,62.196 L443.58,124.972 L457.15,124.972 L457.15,91.578 C458.094,81.784 464.584,74.586 474.968,74.468 C484.408,74.468 490.072,80.25 490.072,89.69 L490.072,124.972 L503.642,124.972 L503.642,85.914 C503.642,70.928 494.91,61.724 480.278,61.724 Z M581.64,37.416 L581.64,124.972 L568.07,124.972 L568.07,114.234 C563.586,121.55 556.034,125.562 546.004,125.562 C527.95,125.562 515.914,112.464 515.914,93.348 C515.914,74.468 528.068,61.606 545.768,61.606 C555.916,61.606 563.468,65.736 568.07,73.052 L568.07,37.416 L581.64,37.416 Z M548.836,114.234 C560.164,114.234 568.07,105.738 568.07,93.82 C568.07,81.666 560.164,73.17 548.836,73.17 C537.508,73.17 529.602,81.784 529.484,93.82 C529.602,105.738 537.39,114.234 548.836,114.234 Z" id="asefind" fill="#FFFFFF"></path>
            <g id="Group" transform="translate(25.000000, 23.000000)">
                <mask id="mask-2" fill="white">
                    <use xlink:href="#path-1"></use>
                </mask>
                <use id="C" fill="#444A51" xlink:href="#path-1"></use>
                <polygon id="Rectangle-2" fill="#EFA751" mask="url(#mask-2)" points="-5 13 47 37 47 70 -5 86"></polygon>
                <polygon id="Rectangle" fill="#27D6C3" mask="url(#mask-2)" points="-4.5 -0.5 113.5 -0.5 70 50 -4.5 14.5"></polygon>
                <polygon id="Rectangle" fill="#D41E9A" mask="url(#mask-2)" points="-4 106 114 106 76.5 58.5 -4 83"></polygon>
            </g>
        </g>
    </g>
</svg>