<?xml version="1.0" standalone="no"?>
<!DOCTYPE svg PUBLIC "-//W3C//DTD SVG 20010904//EN"
 "http://www.w3.org/TR/2001/REC-SVG-20010904/DTD/svg10.dtd">
<svg version="1.0" xmlns="http://www.w3.org/2000/svg"
 width="300.000000pt" height="300.000000pt" viewBox="0 0 300.000000 300.000000"
 preserveAspectRatio="xMidYMid meet">
<metadata>
Created by potrace 1.11, written by Peter Selinger 2001-2013
</metadata>
<g transform="translate(0.000000,300.000000) scale(0.100000,-0.100000)"
fill="#000000" stroke="none">
<path d="M0 1500 l0 -1500 1500 0 1500 0 0 1500 0 1500 -1500 0 -1500 0 0
-1500z m1801 1006 c107 -20 219 -60 323 -114 90 -46 222 -138 264 -184 l22
-25 -147 -175 -148 -175 -77 72 c-84 79 -197 144 -294 170 -84 22 -224 20
-304 -4 -233 -72 -384 -273 -397 -527 -8 -149 32 -298 108 -406 12 -16 20 -30
18 -32 -6 -3 -492 -149 -503 -150 -15 -2 -73 120 -105 219 -57 178 -65 392
-21 575 27 115 123 305 199 396 243 292 667 436 1062 360z"/>
</g>
</svg>
